<svg id="Laag_1" data-name="Laag 1" xmlns="http://www.w3.org/2000/svg" xmlns:xlink="http://www.w3.org/1999/xlink" viewBox="0 0 595.28 676.6"><defs><style>.cls-1{fill:url(#radial-gradient);}.cls-2{fill:url(#linear-gradient);}.cls-3{fill:#fff;}.cls-4{fill:#006690;}.cls-5{fill:#8fd300;}</style><radialGradient id="radial-gradient" cx="303.67" cy="312.84" r="243.27" gradientUnits="userSpaceOnUse"><stop offset="0" stop-color="#33b4cf"/><stop offset="0.13" stop-color="#2aa6c4"/><stop offset="0.5" stop-color="#1383a8"/><stop offset="0.8" stop-color="#056e96"/><stop offset="1" stop-color="#006690"/></radialGradient><linearGradient id="linear-gradient" x1="279.86" y1="324.16" x2="325.14" y2="426.79" gradientUnits="userSpaceOnUse"><stop offset="0" stop-color="#cee98a"/><stop offset="0.01" stop-color="#cce887"/><stop offset="0.25" stop-color="#b7e157"/><stop offset="0.47" stop-color="#a5db31"/><stop offset="0.68" stop-color="#99d716"/><stop offset="0.86" stop-color="#92d406"/><stop offset="1" stop-color="#8fd300"/></linearGradient></defs><path class="cls-1" d="M492.35,282.1V73.1H104.2V381.19c50.63-33,118.42-61.74,195.38-80.24C369.12,284.24,435.82,278.39,492.35,282.1Z"/><path class="cls-2" d="M492.35,449.7V282.1c-56.53-3.71-123.23,2.14-192.77,18.85-77,18.5-144.75,47.28-195.38,80.24V449.7Z"/><path class="cls-3" d="M447.16,281.14l-9.76-42.95L323.23,264.13l-8-35.44,62.63-14.23-11.52-50.69L303.63,178,279.58,73.08h-60.5l27.08,118-62.61,14.22L195.07,256l62.32-14.15,8,35.43L151.63,303.11,162,348.75a685.14,685.14,0,0,1,110.28-40.87l32.06,141.87h60.84L330,294.18A678.94,678.94,0,0,1,447.16,281.14Z"/><path class="cls-4" d="M105.85,498.07h18.22l14.84,24.08,14.84-24.08H172v62.2H154.81V524.55l-15.9,24.34h-.36l-15.82-24.26v35.64H105.85Z"/><path class="cls-4" d="M180.14,536.45v-.17c0-13.69,11.2-25.15,26.57-25.15s26.48,11.28,26.48,25v.18c0,13.68-11.19,25.15-26.66,25.15C191.25,561.43,180.14,550.14,180.14,536.45Zm36.7,0v-.17c0-5.95-4.35-10.94-10.31-10.94-6.13,0-10,4.89-10,10.76v.18c0,5.86,4.27,10.84,10.22,10.84C212.84,547.12,216.84,542.23,216.84,536.45Z"/><path class="cls-4" d="M236.48,554.14,242.79,544c5.51,3.65,11.46,5.51,16.44,5.51,2.93,0,4.35-.88,4.35-2.57v-.18c0-2-2.75-2.76-7.82-4.17-9.51-2.49-17.06-5.69-17.06-15.29v-.18c0-10.22,8.18-15.9,19.28-15.9a37.56,37.56,0,0,1,19.82,5.6L272,527.48c-5-2.85-10.39-4.53-14.21-4.53-2.58,0-3.91,1-3.91,2.39v.19c0,1.86,2.84,2.75,7.82,4.26,9.5,2.67,17.06,6,17.06,15.28v.18c0,10.57-7.91,16.09-19.64,16.09A38.46,38.46,0,0,1,236.48,554.14Z"/><path class="cls-4" d="M283.4,546.49v-.18c0-10,7.55-15.1,18.84-15.1a34.39,34.39,0,0,1,11.55,1.87v-.8c0-5.07-3.11-7.91-9.6-7.91A36.61,36.61,0,0,0,290.86,527l-3.47-11.82a48.6,48.6,0,0,1,19.47-3.72c8.62,0,14.49,2,18.3,5.86,3.64,3.55,5.15,8.53,5.15,15.28v27.64H313.7v-5.06a18.52,18.52,0,0,1-14.22,6.13C290.33,561.34,283.4,556,283.4,546.49ZM314,542.85v-2.22a18.52,18.52,0,0,0-6.66-1.24c-4.88,0-7.73,2.31-7.73,6v.18c0,3.29,2.49,5.24,6,5.24C310.5,550.76,314,547.65,314,542.85Z"/><path class="cls-4" d="M338,525.08H367.1v14.75H338Z"/><path class="cls-4" d="M376.17,498.07h29.41c9.51,0,16.08,2.49,20.26,6.66,3.65,3.65,5.51,8.36,5.51,14.49v.17c0,9.6-5.06,15.91-12.8,19.2l14.84,21.68H413.58l-12.53-18.84h-7.64v18.84H376.17Zm28.7,29.86c5.78,0,9.24-2.85,9.24-7.38v-.18c0-5-3.64-7.46-9.33-7.46H393.41v15Z"/><path class="cls-4" d="M455.26,513.17H436.69v-15.1h54.47v15.1H472.49v47.1H455.26Z"/><path class="cls-5" d="M107.14,470.65h2.47v7.08l6.71-7.08h3.06l-5.88,6.05,6.14,8h-3l-4.81-6.34-2.2,2.25v4.09h-2.47Z"/><path class="cls-5" d="M126.46,470.54h2.29l6.2,14.2h-2.61l-1.44-3.4h-6.66l-1.44,3.4h-2.54Zm3.54,8.6-2.43-5.63-2.42,5.63Z"/><path class="cls-5" d="M139,472.94h-4.46v-2.29H146v2.29h-4.47v11.8H139Z"/><path class="cls-5" d="M148.59,470.65h2.48v5.85h6.72v-5.85h2.48v14.09h-2.48V478.8h-6.72v5.94h-2.48Z"/><path class="cls-5" d="M163.26,477.73v0a7.37,7.37,0,0,1,14.73-.05v.05a7.37,7.37,0,0,1-14.73,0Zm12.14,0v0a4.83,4.83,0,0,0-4.79-5,4.76,4.76,0,0,0-4.75,5v.05a4.8,4.8,0,0,0,4.79,5A4.74,4.74,0,0,0,175.4,477.73Z"/><path class="cls-5" d="M181,470.65h2.47v11.83h7.41v2.26H181Z"/><path class="cls-5" d="M193.58,470.65h2.48v14.09h-2.48Z"/><path class="cls-5" d="M199.82,470.65h10.45v2.21h-8v3.66h7.06v2.22H202.3v3.78h8.07v2.22H199.82Z"/><path class="cls-5" d="M213.3,470.65h2.48v7.08l6.7-7.08h3.06l-5.87,6.05,6.14,8h-3L218,478.4l-2.19,2.25v4.09H213.3Z"/><path class="cls-5" d="M233,482.68l1.49-1.77a6.52,6.52,0,0,0,4.45,1.83c1.53,0,2.5-.72,2.5-1.77v0c0-1-.57-1.55-3.18-2.15-3-.72-4.69-1.61-4.69-4.21v0c0-2.41,2-4.09,4.81-4.09a7.85,7.85,0,0,1,5.11,1.77l-1.33,1.88a6.36,6.36,0,0,0-3.82-1.45c-1.45,0-2.3.74-2.3,1.67v0c0,1.09.65,1.57,3.36,2.21,3,.73,4.51,1.8,4.51,4.13v0c0,2.64-2.07,4.21-5,4.21A8.71,8.71,0,0,1,233,482.68Z"/><path class="cls-5" d="M246.83,470.65h10.45v2.21h-8v3.66h7.07v2.22H249.3v3.78h8.08v2.22H246.83Z"/><path class="cls-5" d="M259.68,477.73v0a7.14,7.14,0,0,1,7.27-7.3,7.35,7.35,0,0,1,5.52,2.2l-1.59,1.83a5.61,5.61,0,0,0-3.95-1.75,4.74,4.74,0,0,0-4.65,5v.05a4.74,4.74,0,0,0,4.65,5,5.47,5.47,0,0,0,4-1.81l1.6,1.61a7.28,7.28,0,0,1-5.72,2.5A7.09,7.09,0,0,1,259.68,477.73Z"/><path class="cls-5" d="M274.94,478.76v-8.11h2.47v8c0,2.62,1.35,4,3.56,4s3.55-1.32,3.55-3.91v-8.11H287v8c0,4.21-2.38,6.32-6.06,6.32S274.94,482.85,274.94,478.76Z"/><path class="cls-5" d="M290.39,470.65h2.3l7.54,9.74v-9.74h2.44v14.09H300.6l-7.77-10v10h-2.44Z"/><path class="cls-5" d="M306.29,470.65h5.25c4.43,0,7.49,3,7.49,7v.05c0,4-3.06,7-7.49,7h-5.25Zm2.47,2.25v9.58h2.78a4.59,4.59,0,0,0,4.89-4.75v0a4.62,4.62,0,0,0-4.89-4.8Z"/><path class="cls-5" d="M326,470.54h2.29l6.2,14.2h-2.61l-1.43-3.4h-6.67l-1.45,3.4h-2.53Zm3.54,8.6-2.43-5.63-2.42,5.63Z"/><path class="cls-5" d="M337.07,470.65h2.48v14.09h-2.48Z"/><path class="cls-5" d="M343.31,470.65h6.28a5.72,5.72,0,0,1,4.07,1.4,4.25,4.25,0,0,1,1.16,3v0a4.22,4.22,0,0,1-3.34,4.27l3.81,5.34h-2.94l-3.46-4.91h-3.1v4.91h-2.48Zm6.1,7c1.77,0,2.9-.93,2.9-2.35v0c0-1.52-1.09-2.34-2.92-2.34h-3.6v4.73Z"/><path class="cls-5" d="M363.27,477.73v0a7.37,7.37,0,0,1,14.74-.05v.05a7.37,7.37,0,0,1-14.74,0Zm12.14,0v0a4.83,4.83,0,0,0-4.79-5,4.76,4.76,0,0,0-4.75,5v.05a4.8,4.8,0,0,0,4.79,5A4.74,4.74,0,0,0,375.41,477.73Z"/><path class="cls-5" d="M381,470.65h2.29l7.55,9.74v-9.74h2.44v14.09h-2.07l-7.77-10v10H381Z"/><path class="cls-5" d="M396.89,470.65h5.26c4.43,0,7.49,3,7.49,7v.05c0,4-3.06,7-7.49,7h-5.26Zm2.48,2.25v9.58h2.78a4.59,4.59,0,0,0,4.89-4.75v0a4.62,4.62,0,0,0-4.89-4.8Z"/><path class="cls-5" d="M412.63,470.65h10.45v2.21h-8v3.66h7.06v2.22h-7.06v3.78h8.07v2.22H412.63Z"/><path class="cls-5" d="M426.11,470.65h6.28a5.7,5.7,0,0,1,4.07,1.4,4.3,4.3,0,0,1,1.16,3v0a4.22,4.22,0,0,1-3.34,4.27l3.81,5.34h-2.94l-3.46-4.91h-3.1v4.91h-2.48Zm6.1,7c1.77,0,2.9-.93,2.9-2.35v0c0-1.52-1.09-2.34-2.92-2.34h-3.6v4.73Z"/><path class="cls-5" d="M439.27,470.65H442l3.36,10.45,3.46-10.49h2.1l3.46,10.49,3.36-10.45h2.6l-4.89,14.19h-2.16l-3.46-10.13-3.46,10.13h-2.14Z"/><path class="cls-5" d="M463,470.65h2.48v14.09H463Z"/><path class="cls-5" d="M467.8,482.67l1.63-1.7a3.49,3.49,0,0,0,2.84,1.67c1.33,0,2.24-.88,2.24-2.77v-9.22h2.55V480a5.08,5.08,0,0,1-1.33,3.74,4.67,4.67,0,0,1-3.42,1.25A5.31,5.31,0,0,1,467.8,482.67Z"/><path class="cls-5" d="M479.51,482.68l1.5-1.77a6.48,6.48,0,0,0,4.45,1.83c1.52,0,2.49-.72,2.49-1.77v0c0-1-.56-1.55-3.18-2.15-3-.72-4.69-1.61-4.69-4.21v0c0-2.41,2-4.09,4.81-4.09a7.85,7.85,0,0,1,5.11,1.77l-1.33,1.88a6.36,6.36,0,0,0-3.82-1.45c-1.45,0-2.3.74-2.3,1.67v0c0,1.09.65,1.57,3.37,2.21,3,.73,4.5,1.8,4.5,4.13v0c0,2.64-2.07,4.21-5,4.21A8.71,8.71,0,0,1,479.51,482.68Z"/><path class="cls-5" d="M106.81,573.87H112a4.67,4.67,0,0,1,3.34,1.16,3.52,3.52,0,0,1,1,2.5v0a3.49,3.49,0,0,1-2.75,3.51l3.13,4.38h-2.42l-2.84-4h-2.55v4h-2Zm5,5.74c1.45,0,2.38-.76,2.38-1.94v0c0-1.24-.89-1.92-2.4-1.92h-3v3.89Z"/><path class="cls-5" d="M118.6,580.54v-6.67h2v6.58c0,2.15,1.11,3.29,2.93,3.29s2.92-1.07,2.92-3.2v-6.67h2v6.57c0,3.45-1.95,5.19-5,5.19S118.6,583.89,118.6,580.54Z"/><path class="cls-5" d="M131.43,573.87h2v11.58h-2Z"/><path class="cls-5" d="M136.56,573.87h2.17l3.52,5.48,3.53-5.48h2.16v11.58h-2v-8.31l-3.66,5.46h-.07l-3.62-5.43v8.28h-2Z"/><path class="cls-5" d="M153.77,575.75H150.1v-1.88h9.4v1.88h-3.67v9.7h-2.06Z"/><path class="cls-5" d="M161.65,573.87h8.59v1.82h-6.55v3h5.81v1.82h-5.81v3.11h6.63v1.82h-8.67Z"/><path class="cls-5" d="M176.71,573.87H179l3.49,8.9,3.47-8.9h2.2l-4.8,11.66h-1.8Z"/><path class="cls-5" d="M188.89,579.69v0a6.05,6.05,0,0,1,12.1,0v0a6.05,6.05,0,0,1-12.1,0Zm10,0v0a4,4,0,0,0-3.94-4.12,3.91,3.91,0,0,0-3.9,4.09v0a4,4,0,0,0,3.93,4.1A3.9,3.9,0,0,0,198.86,579.69Z"/><path class="cls-5" d="M203,579.69v0a6.05,6.05,0,0,1,12.1,0v0a6.05,6.05,0,0,1-12.1,0Zm10,0v0a4,4,0,0,0-3.94-4.12,3.91,3.91,0,0,0-3.9,4.09v0a4,4,0,0,0,3.93,4.1A3.9,3.9,0,0,0,212.93,579.69Z"/><path class="cls-5" d="M217.53,573.87h5.17A4.67,4.67,0,0,1,226,575a3.52,3.52,0,0,1,1,2.5v0a3.49,3.49,0,0,1-2.75,3.51l3.13,4.38H225l-2.84-4h-2.55v4h-2Zm5,5.74c1.46,0,2.39-.76,2.39-1.94v0c0-1.24-.89-1.92-2.4-1.92h-3v3.89Z"/><path class="cls-5" d="M237.31,575.75h-3.67v-1.88H243v1.88h-3.67v9.7h-2.05Z"/><path class="cls-5" d="M247.8,573.79h1.89l5.1,11.66h-2.15l-1.18-2.8H246l-1.19,2.8h-2.09Zm2.92,7.06-2-4.63-2,4.63Z"/><path class="cls-5" d="M256.78,573.87h2v9.72h6.09v1.86h-8.12Z"/><path class="cls-5" d="M267,573.87h8.59v1.82h-6.55v3h5.8v1.82h-5.8v3.11h6.63v1.82H267Z"/><path class="cls-5" d="M278.11,573.87H280l6.2,8v-8h2v11.58h-1.7l-6.38-8.24v8.24h-2Z"/><path class="cls-5" d="M294,575.75h-3.67v-1.88h9.4v1.88h-3.67v9.7H294Z"/><path class="cls-5" d="M301.27,576.71h2.2V579h-2.2Zm0,6.46h2.2v2.28h-2.2Z"/><path class="cls-5" d="M310.62,579.69v0a5.9,5.9,0,0,1,6-6,6.24,6.24,0,0,1,4.45,1.57l-1.29,1.54a4.53,4.53,0,0,0-3.24-1.24,3.92,3.92,0,0,0-3.76,4.09v0a3.87,3.87,0,0,0,3.94,4.13,4.68,4.68,0,0,0,2.79-.87v-2.17h-3V579h4.92v4.86a7.34,7.34,0,0,1-4.82,1.81A5.75,5.75,0,0,1,310.62,579.69Z"/><path class="cls-5" d="M324.11,573.87h5.16a4.64,4.64,0,0,1,3.34,1.16,3.52,3.52,0,0,1,1,2.5v0a3.49,3.49,0,0,1-2.75,3.51l3.13,4.38h-2.41l-2.84-4h-2.56v4h-2Zm5,5.74c1.46,0,2.38-.76,2.38-1.94v0c0-1.24-.89-1.92-2.39-1.92h-3v3.89Z"/><path class="cls-5" d="M336.08,573.87h8.58v1.82h-6.55v3h5.81v1.82h-5.81v3.11h6.64v1.82h-8.67Z"/><path class="cls-5" d="M347.17,573.87h1.88l6.21,8v-8h2v11.58h-1.7l-6.39-8.24v8.24h-2Z"/><path class="cls-5" d="M359.47,583.76l1.22-1.46a5.36,5.36,0,0,0,3.66,1.51c1.25,0,2-.6,2-1.46v0c0-.83-.47-1.27-2.61-1.77-2.47-.59-3.86-1.32-3.86-3.45v0c0-2,1.65-3.35,3.95-3.35a6.46,6.46,0,0,1,4.21,1.45L367,576.7a5.23,5.23,0,0,0-3.14-1.19c-1.19,0-1.89.61-1.89,1.37v0c0,.9.54,1.29,2.77,1.82,2.44.6,3.7,1.48,3.7,3.39v0c0,2.16-1.7,3.45-4.13,3.45A7.13,7.13,0,0,1,359.47,583.76Z"/><path class="cls-5" d="M369.35,573.87h2.25l3.49,8.9,3.47-8.9h2.2L376,585.53h-1.81Z"/><path class="cls-5" d="M382.76,573.87h8.58v1.82h-6.55v3h5.81v1.82h-5.81v3.11h6.64v1.82h-8.67Z"/><path class="cls-5" d="M393.84,573.87H399a4.65,4.65,0,0,1,3.34,1.16,3.52,3.52,0,0,1,1,2.5v0a3.49,3.49,0,0,1-2.75,3.51l3.13,4.38h-2.41l-2.85-4h-2.55v4h-2Zm5,5.74c1.46,0,2.38-.76,2.38-1.94v0c0-1.24-.89-1.92-2.4-1.92h-3v3.89Z"/><path class="cls-5" d="M405.81,573.87h2v9.72h6.09v1.86h-8.13Z"/><path class="cls-5" d="M416.06,573.87h8.58v1.82h-6.55v3h5.81v1.82h-5.81v3.11h6.64v1.82h-8.67Z"/><path class="cls-5" d="M426.63,579.69v0a5.91,5.91,0,0,1,6-6,6.24,6.24,0,0,1,4.45,1.57l-1.3,1.54a4.51,4.51,0,0,0-3.23-1.24,3.92,3.92,0,0,0-3.76,4.09v0a3.86,3.86,0,0,0,3.94,4.13,4.7,4.7,0,0,0,2.79-.87v-2.17h-3V579h4.93v4.86a7.36,7.36,0,0,1-4.83,1.81A5.75,5.75,0,0,1,426.63,579.69Z"/><path class="cls-5" d="M439.61,579.69v0a5.9,5.9,0,0,1,6-6,6.24,6.24,0,0,1,4.45,1.57l-1.29,1.54a4.56,4.56,0,0,0-3.25-1.24,3.92,3.92,0,0,0-3.75,4.09v0a3.86,3.86,0,0,0,3.94,4.13,4.7,4.7,0,0,0,2.79-.87v-2.17h-3V579h4.93v4.86a7.36,7.36,0,0,1-4.83,1.81A5.75,5.75,0,0,1,439.61,579.69Z"/><path class="cls-5" d="M453.1,573.87h8.59v1.82h-6.55v3H461v1.82h-5.81v3.11h6.63v1.82H453.1Z"/><path class="cls-5" d="M464.19,573.87h1.89l6.2,8v-8h2v11.58h-1.7l-6.38-8.24v8.24h-2Z"/><path class="cls-5" d="M477.27,573.87h4.32c3.64,0,6.15,2.5,6.15,5.76v0a5.79,5.79,0,0,1-6.15,5.79h-4.32Zm2,1.85v7.87h2.28a3.77,3.77,0,0,0,4-3.9v0a3.8,3.8,0,0,0-4-3.94Z"/><path class="cls-5" d="M490.05,574.45v-.58h2.35v.58l-.61,7.33h-1.11Zm.08,8.72h2.2v2.28h-2.2Z"/></svg>