<svg id="Laag_1" data-name="Laag 1" xmlns="http://www.w3.org/2000/svg" xmlns:xlink="http://www.w3.org/1999/xlink" viewBox="0 0 774 231"><defs><style>.cls-1{fill:#006690;}.cls-2{fill:#8fd300;}.cls-3{fill:#fff;}.cls-4{fill:url(#radial-gradient);}.cls-5{fill:url(#radial-gradient-2);}.cls-6{fill:url(#linear-gradient);}.cls-7{fill:url(#linear-gradient-2);}</style><radialGradient id="radial-gradient" cx="116" cy="132.33" r="86.27" gradientUnits="userSpaceOnUse"><stop offset="0" stop-color="#33b4cf"/><stop offset="0.13" stop-color="#2aa6c4"/><stop offset="0.5" stop-color="#1383a8"/><stop offset="0.8" stop-color="#056e96"/><stop offset="1" stop-color="#006690"/></radialGradient><radialGradient id="radial-gradient-2" cx="116" cy="132.33" r="86.27" xlink:href="#radial-gradient"/><linearGradient id="linear-gradient" x1="65.73" y1="155.93" x2="78.16" y2="184.1" gradientUnits="userSpaceOnUse"><stop offset="0" stop-color="#cee98a"/><stop offset="0.01" stop-color="#cce887"/><stop offset="0.25" stop-color="#b7e157"/><stop offset="0.47" stop-color="#a5db31"/><stop offset="0.68" stop-color="#99d716"/><stop offset="0.86" stop-color="#92d406"/><stop offset="1" stop-color="#8fd300"/></linearGradient><linearGradient id="linear-gradient-2" x1="154.59" y1="127.85" x2="171.78" y2="166.79" xlink:href="#linear-gradient"/></defs><path class="cls-1" d="M217.55,75.89h24.34l19.83,32.17,19.82-32.17h24.34V159H283V111.27l-21.24,32.52h-.48l-21.13-32.41V159H217.55Z"/><path class="cls-1" d="M316.8,127.18v-.24c0-18.28,14.95-33.59,35.5-33.59s35.37,15.07,35.37,33.35v.24c0,18.28-15,33.6-35.61,33.6C331.64,160.54,316.8,145.46,316.8,127.18Zm49,0v-.24c0-8-5.82-14.6-13.77-14.6-8.19,0-13.41,6.53-13.41,14.36v.24c0,7.84,5.69,14.48,13.65,14.48C360.48,141.42,365.83,134.89,365.83,127.18Z"/><path class="cls-1" d="M392.07,150.81l8.43-13.54c7.35,4.87,15.3,7.36,22,7.36,3.91,0,5.81-1.18,5.81-3.45V141c0-2.61-3.68-3.68-10.44-5.58C405.12,132,395,127.77,395,115v-.24c0-13.65,10.92-21.25,25.77-21.25a50.17,50.17,0,0,1,26.46,7.48l-7.71,14.25c-6.65-3.81-13.89-6.06-19-6.06-3.45,0-5.23,1.31-5.23,3.21v.24c0,2.49,3.8,3.68,10.45,5.69,12.7,3.56,22.79,8,22.79,20.43v.23c0,14.13-10.57,21.49-26.23,21.49A51.33,51.33,0,0,1,392.07,150.81Z"/><path class="cls-1" d="M454.75,140.59v-.23c0-13.42,10.09-20.19,25.16-20.19a46.19,46.19,0,0,1,15.44,2.49V121.6c0-6.77-4.16-10.57-12.83-10.57-6.76,0-12,1.43-17.8,3.56L460.09,98.8a64.65,64.65,0,0,1,26-5c11.52,0,19.36,2.73,24.46,7.84,4.87,4.74,6.88,11.39,6.88,20.41V159H495.23v-6.76a24.75,24.75,0,0,1-19,8.19C464,160.42,454.75,153.29,454.75,140.59Zm40.83-4.86v-3a25,25,0,0,0-8.9-1.65c-6.53,0-10.33,3.08-10.33,8v.23c0,4.4,3.33,7,8,7C491,146.29,495.58,142.14,495.58,135.73Z"/><path class="cls-1" d="M527.64,112h38.93v19.71H527.64Z"/><path class="cls-1" d="M578.68,75.89H618c12.7,0,21.49,3.33,27.07,8.91,4.87,4.87,7.36,11.16,7.36,19.35v.23c0,12.83-6.76,21.25-17.09,25.65l19.82,29H628.66l-16.73-25.17H601.71V159h-23ZM617,115.79c7.72,0,12.35-3.81,12.35-9.86v-.24c0-6.65-4.87-10-12.46-10h-15.2v20.07Z"/><path class="cls-1" d="M684.34,96.07H659.53V75.89H732.3V96.07H707.37V159h-23Z"/><path class="cls-2" d="M219.27,39.26h3.31v9.46l9-9.46h4.08l-7.85,8.09L236,58.09h-4l-6.43-8.48-2.93,3v5.47h-3.31Z"/><path class="cls-2" d="M245.08,39.12h3.07l8.28,19h-3.49L251,53.54h-8.9l-1.93,4.55H236.8Zm4.74,11.49-3.26-7.53-3.23,7.53Z"/><path class="cls-2" d="M261.86,42.32h-6V39.26h15.27v3.06h-6V58.09h-3.33Z"/><path class="cls-2" d="M274.65,39.26H278v7.82h9V39.26h3.31V58.09h-3.31V50.15h-9v7.94h-3.31Z"/><path class="cls-2" d="M294.24,48.72v0a9.85,9.85,0,0,1,19.69-.05v.05a9.85,9.85,0,0,1-19.69,0Zm16.22,0v0a6.45,6.45,0,0,0-6.4-6.7,6.36,6.36,0,0,0-6.34,6.65v.05a6.42,6.42,0,0,0,6.4,6.67A6.33,6.33,0,0,0,310.46,48.72Z"/><path class="cls-2" d="M317.93,39.26h3.31V55.07h9.89v3h-13.2Z"/><path class="cls-2" d="M334.76,39.26h3.31V58.09h-3.31Z"/><path class="cls-2" d="M343.09,39.26h14v3H346.4v4.9h9.44v3H346.4v5.07h10.79v3h-14.1Z"/><path class="cls-2" d="M361.1,39.26h3.31v9.46l9-9.46h4.09l-7.86,8.09,8.21,10.74h-4l-6.43-8.48-2.93,3v5.47H361.1Z"/><path class="cls-2" d="M387.42,55.34l2-2.37a8.67,8.67,0,0,0,5.94,2.45c2,0,3.34-1,3.34-2.37v0c0-1.34-.75-2.07-4.25-2.88-4-1-6.27-2.15-6.27-5.62v0c0-3.23,2.69-5.46,6.43-5.46a10.45,10.45,0,0,1,6.83,2.36l-1.77,2.51a8.53,8.53,0,0,0-5.11-1.94c-1.94,0-3.07,1-3.07,2.23v.06c0,1.45.86,2.09,4.49,3,4,1,6,2.39,6,5.51v0c0,3.52-2.76,5.62-6.72,5.62A11.57,11.57,0,0,1,387.42,55.34Z"/><path class="cls-2" d="M405.88,39.26h14v3H409.2v4.9h9.44v3H409.2v5.07H420v3h-14.1Z"/><path class="cls-2" d="M423.06,48.72v0a9.53,9.53,0,0,1,9.71-9.74,9.82,9.82,0,0,1,7.37,2.94L438,44.31A7.53,7.53,0,0,0,432.75,42a6.34,6.34,0,0,0-6.22,6.65v.05c0,3.68,2.61,6.67,6.22,6.67a7.36,7.36,0,0,0,5.4-2.42l2.13,2.15a9.72,9.72,0,0,1-7.64,3.34A9.47,9.47,0,0,1,423.06,48.72Z"/><path class="cls-2" d="M443.44,50.09V39.26h3.31V50c0,3.5,1.8,5.35,4.76,5.35s4.73-1.75,4.73-5.22V39.26h3.31V49.93c0,5.63-3.17,8.45-8.1,8.45S443.44,55.56,443.44,50.09Z"/><path class="cls-2" d="M464.08,39.26h3.07l10.09,13v-13h3.25V58.09h-2.77l-10.38-13.4v13.4h-3.26Z"/><path class="cls-2" d="M485.32,39.26h7c5.91,0,10,4.06,10,9.36v.05c0,5.3-4.09,9.42-10,9.42h-7Zm3.31,3v12.8h3.72a6.14,6.14,0,0,0,6.53-6.35v0a6.18,6.18,0,0,0-6.53-6.4Z"/><path class="cls-2" d="M511.7,39.12h3.06l8.29,19h-3.51l-1.9-4.55h-8.91l-1.93,4.55h-3.39Zm4.73,11.49-3.25-7.53L510,50.61Z"/><path class="cls-2" d="M526.45,39.26h3.31V58.09h-3.31Z"/><path class="cls-2" d="M534.78,39.26h8.39a7.61,7.61,0,0,1,5.44,1.88,5.67,5.67,0,0,1,1.56,4.06v.06A5.66,5.66,0,0,1,545.7,51l5.09,7.13h-3.93l-4.62-6.57h-4.15v6.57h-3.31Zm8.15,9.33c2.37,0,3.88-1.24,3.88-3.14v-.06c0-2-1.46-3.12-3.9-3.12h-4.82v6.32Z"/><path class="cls-2" d="M561.45,48.72v0a9.85,9.85,0,0,1,19.69-.05v.05a9.85,9.85,0,0,1-19.69,0Zm16.22,0v0a6.45,6.45,0,0,0-6.4-6.7,6.37,6.37,0,0,0-6.35,6.65v.05a6.42,6.42,0,0,0,6.4,6.67A6.34,6.34,0,0,0,577.67,48.72Z"/><path class="cls-2" d="M585.13,39.26h3.07l10.08,13v-13h3.26V58.09h-2.77l-10.38-13.4v13.4h-3.26Z"/><path class="cls-2" d="M606.37,39.26h7c5.91,0,10,4.06,10,9.36v.05c0,5.3-4.09,9.42-10,9.42h-7Zm3.31,3v12.8h3.71a6.13,6.13,0,0,0,6.53-6.35v0a6.18,6.18,0,0,0-6.53-6.4Z"/><path class="cls-2" d="M627.39,39.26h14v3H630.7v4.9h9.44v3H630.7v5.07h10.79v3h-14.1Z"/><path class="cls-2" d="M645.4,39.26h8.39a7.57,7.57,0,0,1,5.43,1.88,5.67,5.67,0,0,1,1.57,4.06v.06a5.66,5.66,0,0,1-4.47,5.7l5.08,7.13h-3.92l-4.63-6.57h-4.14v6.57H645.4Zm8.15,9.33c2.36,0,3.87-1.24,3.87-3.14v-.06c0-2-1.45-3.12-3.89-3.12h-4.82v6.32Z"/><path class="cls-2" d="M663,39.26h3.58l4.49,14,4.62-14h2.8l4.63,14,4.49-14h3.47l-6.53,19h-2.88L677,44.69l-4.63,13.53h-2.84Z"/><path class="cls-2" d="M694.62,39.26h3.31V58.09h-3.31Z"/><path class="cls-2" d="M701.1,55.31l2.18-2.26c1.1,1.43,2.2,2.24,3.79,2.24,1.78,0,3-1.18,3-3.71V39.26h3.42V51.69a6.87,6.87,0,0,1-1.77,5,6.31,6.31,0,0,1-4.58,1.66A7.07,7.07,0,0,1,701.1,55.31Z"/><path class="cls-2" d="M716.74,55.34l2-2.37a8.65,8.65,0,0,0,5.94,2.45c2,0,3.33-1,3.33-2.37v0c0-1.34-.74-2.07-4.25-2.88-4-1-6.26-2.15-6.26-5.62v0c0-3.23,2.69-5.46,6.43-5.46a10.45,10.45,0,0,1,6.83,2.36L729,43.86a8.49,8.49,0,0,0-5.11-1.94c-1.93,0-3.06,1-3.06,2.23v.06c0,1.45.86,2.09,4.49,3,4,1,6,2.39,6,5.51v0c0,3.52-2.77,5.62-6.72,5.62A11.61,11.61,0,0,1,716.74,55.34Z"/><path class="cls-2" d="M218.84,177.16h6.9a6.23,6.23,0,0,1,4.46,1.55,4.67,4.67,0,0,1,1.28,3.34v0a4.65,4.65,0,0,1-3.66,4.69l4.17,5.85h-3.23l-3.8-5.39h-3.4v5.39h-2.72Zm6.7,7.67c1.94,0,3.18-1,3.18-2.58v-.05c0-1.65-1.19-2.56-3.2-2.56h-4v5.19Z"/><path class="cls-2" d="M234.59,186.07v-8.91h2.71V186c0,2.87,1.48,4.4,3.92,4.4s3.89-1.44,3.89-4.29v-8.91h2.71v8.78c0,4.62-2.6,6.94-6.65,6.94S234.59,190.56,234.59,186.07Z"/><path class="cls-2" d="M251.73,177.16h2.71v15.47h-2.71Z"/><path class="cls-2" d="M258.58,177.16h2.9l4.7,7.32,4.71-7.32h2.89v15.47h-2.71V181.54l-4.89,7.29h-.09l-4.84-7.25v11h-2.67Z"/><path class="cls-2" d="M281.58,179.68h-4.91v-2.52h12.55v2.52h-4.91v12.95h-2.73Z"/><path class="cls-2" d="M292.1,177.16h11.47v2.44h-8.75v4h7.76v2.43h-7.76v4.16h8.86v2.42H292.1Z"/><path class="cls-2" d="M312.22,177.16h3l4.66,11.9,4.64-11.9h2.94l-6.41,15.59h-2.41Z"/><path class="cls-2" d="M328.48,184.94v0a8.09,8.09,0,0,1,16.18,0v0a8.09,8.09,0,0,1-16.18,0Zm13.33,0v0a5.3,5.3,0,0,0-5.26-5.5,5.22,5.22,0,0,0-5.22,5.46v0a5.29,5.29,0,0,0,5.26,5.48A5.21,5.21,0,0,0,341.81,184.94Z"/><path class="cls-2" d="M347.28,184.94v0a8.09,8.09,0,0,1,16.17,0v0a8.09,8.09,0,0,1-16.17,0Zm13.32,0v0a5.3,5.3,0,0,0-5.26-5.5,5.23,5.23,0,0,0-5.22,5.46v0a5.29,5.29,0,0,0,5.27,5.48A5.21,5.21,0,0,0,360.6,184.94Z"/><path class="cls-2" d="M366.75,177.16h6.9a6.23,6.23,0,0,1,4.46,1.55,4.68,4.68,0,0,1,1.29,3.34v0a4.66,4.66,0,0,1-3.67,4.69l4.17,5.85h-3.22l-3.8-5.39h-3.41v5.39h-2.72Zm6.7,7.67c1.95,0,3.19-1,3.19-2.58v-.05c0-1.65-1.2-2.56-3.21-2.56h-4v5.19Z"/><path class="cls-2" d="M393.18,179.68h-4.91v-2.52h12.55v2.52h-4.91v12.95h-2.73Z"/><path class="cls-2" d="M407.19,177.06h2.52l6.81,15.57h-2.88l-1.56-3.73h-7.31l-1.6,3.73h-2.78Zm3.9,9.43-2.68-6.19-2.65,6.19Z"/><path class="cls-2" d="M419.18,177.16h2.72v13H430v2.47H419.18Z"/><path class="cls-2" d="M432.87,177.16h11.47v2.44h-8.75v4h7.75v2.43h-7.75v4.16h8.86v2.42H432.87Z"/><path class="cls-2" d="M447.69,177.16h2.52l8.28,10.7v-10.7h2.67v15.47h-2.27l-8.53-11v11h-2.67Z"/><path class="cls-2" d="M469,179.68H464v-2.52H476.6v2.52h-4.9v12.95H469Z"/><path class="cls-2" d="M478.62,181h2.94v3h-2.94Zm0,8.62h2.94v3h-2.94Z"/><path class="cls-2" d="M491.11,184.94v0a7.88,7.88,0,0,1,8-8,8.38,8.38,0,0,1,6,2.1l-1.73,2.05A6.07,6.07,0,0,0,499,179.4a5.23,5.23,0,0,0-5,5.46v0c0,3.18,2.1,5.53,5.26,5.53a6.32,6.32,0,0,0,3.73-1.17v-2.9H499V184h6.59v6.49a9.84,9.84,0,0,1-6.46,2.41A7.68,7.68,0,0,1,491.11,184.94Z"/><path class="cls-2" d="M509.13,177.16H516a6.23,6.23,0,0,1,4.46,1.55,4.72,4.72,0,0,1,1.29,3.34v0a4.66,4.66,0,0,1-3.68,4.69l4.19,5.85h-3.23l-3.8-5.39h-3.41v5.39h-2.72Zm6.7,7.67c1.95,0,3.18-1,3.18-2.58v-.05c0-1.65-1.19-2.56-3.2-2.56h-4v5.19Z"/><path class="cls-2" d="M525.12,177.16h11.47v2.44h-8.75v4h7.76v2.43h-7.76v4.16h8.86v2.42H525.12Z"/><path class="cls-2" d="M539.94,177.16h2.52l8.29,10.7v-10.7h2.67v15.47h-2.28l-8.53-11v11h-2.67Z"/><path class="cls-2" d="M556.37,190.38l1.64-1.95a7.11,7.11,0,0,0,4.88,2c1.68,0,2.73-.8,2.73-1.95v0c0-1.11-.61-1.7-3.48-2.37-3.3-.79-5.16-1.77-5.16-4.61v0c0-2.65,2.22-4.48,5.29-4.48a8.62,8.62,0,0,1,5.62,1.94l-1.47,2.05a7.06,7.06,0,0,0-4.19-1.59c-1.6,0-2.52.82-2.52,1.84v0c0,1.19.7,1.72,3.68,2.43,3.27.8,5,2,5,4.53v0c0,2.9-2.28,4.62-5.53,4.62A9.52,9.52,0,0,1,556.37,190.38Z"/><path class="cls-2" d="M569.58,177.16h3l4.66,11.9,4.64-11.9h2.94l-6.41,15.59H576Z"/><path class="cls-2" d="M587.48,177.16H599v2.44H590.2v4H598v2.43H590.2v4.16h8.86v2.42H587.48Z"/><path class="cls-2" d="M602.3,177.16h6.9a6.23,6.23,0,0,1,4.46,1.55,4.71,4.71,0,0,1,1.28,3.34v0a4.66,4.66,0,0,1-3.67,4.69l4.18,5.85h-3.23l-3.8-5.39H605v5.39H602.3Zm6.69,7.67c2,0,3.19-1,3.19-2.58v-.05c0-1.65-1.2-2.56-3.21-2.56h-4v5.19Z"/><path class="cls-2" d="M618.29,177.16H621v13h8.13v2.47H618.29Z"/><path class="cls-2" d="M632,177.16h11.47v2.44h-8.75v4h7.76v2.43h-7.76v4.16h8.86v2.42H632Z"/><path class="cls-2" d="M646.1,184.94v0a7.89,7.89,0,0,1,8-8A8.37,8.37,0,0,1,660,179l-1.73,2.05A6.07,6.07,0,0,0,654,179.4a5.23,5.23,0,0,0-5,5.46v0c0,3.18,2.1,5.53,5.26,5.53a6.38,6.38,0,0,0,3.74-1.17v-2.9h-4V184h6.59v6.49a9.84,9.84,0,0,1-6.46,2.41A7.68,7.68,0,0,1,646.1,184.94Z"/><path class="cls-2" d="M663.44,184.94v0a7.89,7.89,0,0,1,8-8,8.37,8.37,0,0,1,6,2.1l-1.73,2.05a6.07,6.07,0,0,0-4.33-1.65,5.23,5.23,0,0,0-5,5.46v0c0,3.18,2.1,5.53,5.26,5.53a6.32,6.32,0,0,0,3.73-1.17v-2.9h-3.95V184h6.58v6.49a9.79,9.79,0,0,1-6.45,2.41A7.68,7.68,0,0,1,663.44,184.94Z"/><path class="cls-2" d="M681.46,177.16h11.47v2.44h-8.75v4h7.76v2.43h-7.76v4.16H693v2.42H681.46Z"/><path class="cls-2" d="M696.28,177.16h2.51l8.29,10.7v-10.7h2.68v15.47h-2.28l-8.53-11v11h-2.67Z"/><path class="cls-2" d="M713.75,177.16h5.77c4.86,0,8.22,3.35,8.22,7.7v0c0,4.36-3.36,7.73-8.22,7.73h-5.77Zm2.72,2.48v10.52h3a5,5,0,0,0,5.37-5.22v0a5.08,5.08,0,0,0-5.37-5.26Z"/><path class="cls-2" d="M730.82,177.94v-.78H734v.78l-.82,9.79h-1.48Zm.11,11.65h2.94v3h-2.94Z"/><rect class="cls-3" x="44.67" y="39" width="139.33" height="154.33"/><path class="cls-4" d="M104,135.68A281.67,281.67,0,0,0,58.58,152.5l-4.27-18.78,46.81-10.63L97.83,108.5l-25.64,5.83L67.45,93.47l25.91-5.89L82,39.23H34.8V166C53.14,154.06,77,143.46,104,135.9Z"/><path class="cls-5" d="M106.94,39.23l10.07,43,25.66-5.83,4.74,20.86-25.77,5.86,3.28,14.58,47-10.67,4,17.67A279.31,279.31,0,0,0,127.7,130l0,.21c24.05-4.75,46.93-6.32,66.76-5v-86Z"/><path class="cls-6" d="M104,134.93a281.67,281.67,0,0,0-45.38,16.82l0-.18A250.35,250.35,0,0,0,34.8,165.25v28.2h82.34Z"/><path class="cls-7" d="M132.54,128.39c-1.61.29-3.22.58-4.84.9l14.44,64.16h52.37v-69C176.09,123.27,154.87,124.7,132.54,128.39Z"/></svg>